<svg id="SvgjsSvg1016" width="256" height="256" version="1.1" xmlns:svgjs="http://svgjs.com/svgjs"
    xmlns="http://www.w3.org/2000/svg" xmlns:xlink="http://www.w3.org/1999/xlink"
    preserveAspectRatio="xMidYMid meet"
>
    <defs id="SvgjsDefs1017"></defs>
    <g id="SvgjsG1018">
        <svg xmlns="http://www.w3.org/2000/svg" xmlns:xlink="http://www.w3.org/1999/xlink"
            viewBox="0 0 32 32" width="256" height="256">
            <defs>
                <linearGradient id="a">
                    <stop offset="0" stop-color="#000092" class="stopColor000092 svgShape"></stop>
                    <stop offset="1" stop-color="#ff00f3" class="stopColorff00f3 svgShape"></stop>
                </linearGradient>
                <linearGradient id="b" x1="1" x2="31" y1="16" y2="16" gradientUnits="userSpaceOnUse"
                    xlink:href="#a"></linearGradient>
            </defs>
            <path fill="url(#b)"
                d="M4.441 4.003A3.507 3.507 0 0 0 1 7.5a.5.5 0 0 0 .5.5H7v16.5c0 1.927 1.573 3.5 3.5 3.5h17c1.927 0 3.5-1.573 3.5-3.5a.5.5 0 0 0-.5-.5H25V7.5C25 5.573 23.427 4 21.5 4l-17 .003zM4.5 5c1.19 0 2.037.89 2.293 2H2.207C2.463 5.89 3.309 5 4.5 5Zm2.44 0H21.5C22.887 5 24 6.113 24 7.5V24H13.5a.5.5 0 0 0-.5.5c0 1.387-1.113 2.5-2.5 2.5A2.492 2.492 0 0 1 8 24.5v-17c0-.979-.409-1.864-1.06-2.5Zm4.777 1v.926a2.4 2.4 0 0 0-.682.181c-.203.09-.377.206-.521.346-.14.14-.25.305-.328.496-.074.191-.112.403-.112.633 0 .25.044.47.13.66.088.191.213.36.376.506.166.146.367.273.6.383.236.107.503.2.799.281.221.073.409.15.564.229.159.078.287.163.383.255.1.093.172.193.217.3a.901.901 0 0 1 .066.349c0 .152-.027.29-.082.414a.857.857 0 0 1-.244.31c-.104.085-.234.15-.389.198a1.844 1.844 0 0 1-.943.013c-.14-.036-.268-.1-.383-.193a.991.991 0 0 1-.277-.375 1.459 1.459 0 0 1-.106-.594H9.81c0 .318.05.59.15.817.1.224.232.412.398.56.17.15.366.262.584.34.219.079.443.131.676.156V14h.772v-.809c.277-.028.526-.083.748-.168.222-.084.41-.197.566-.337.155-.14.276-.306.361-.497.086-.193.127-.41.127-.652a1.63 1.63 0 0 0-.123-.652 1.425 1.425 0 0 0-.359-.498 2.307 2.307 0 0 0-.588-.375 5.415 5.415 0 0 0-.805-.295 4.68 4.68 0 0 1-.6-.23 1.821 1.821 0 0 1-.388-.258.82.82 0 0 1-.215-.295c-.04-.11-.062-.23-.062-.366 0-.146.022-.28.062-.4a.823.823 0 0 1 .522-.51c.13-.047.281-.07.459-.07.17 0 .322.031.455.096a.926.926 0 0 1 .334.27c.089.114.155.25.199.407.048.158.072.332.072.52h.971c0-.57-.143-1.02-.428-1.348-.28-.331-.68-.533-1.197-.603V6Zm4.74 3c-.667.034-.616 1.034.05 1h4.985c.676.01.676-1.01 0-1h-4.984a.5.5 0 0 0-.051 0zm0 3c-.667.034-.616 1.034.05 1h4.985c.676.01.676-1.01 0-1h-4.984a.5.5 0 0 0-.051 0zm-6 3c-.667.034-.616 1.034.05 1h10.985c.676.01.676-1.01 0-1H10.508a.5.5 0 0 0-.051 0zm0 3c-.667.034-.616 1.034.05 1h10.985c.676.01.676-1.01 0-1H10.508a.5.5 0 0 0-.051 0zm0 3c-.667.034-.616 1.034.05 1h10.985c.676.01.676-1.01 0-1H10.508a.5.5 0 0 0-.051 0zm3.441 4h15.895c-.256 1.11-1.102 2-2.293 2H12.932c.536-.522.85-1.227.966-2z"
                color="#000" font-family="sans-serif" font-weight="400" overflow="visible"
                style="line-height:normal;text-indent:0;text-align:start;text-decoration-line:none;text-decoration-style:solid;text-decoration-color:#000;text-transform:none;block-progression:tb;white-space:normal;isolation:auto;mix-blend-mode:normal;solid-color:#000;solid-opacity:1"></path>
        </svg>
    </g>
</svg>